<svg width="256" height="256" viewBox="0 0 256 256" fill="none" xmlns="http://www.w3.org/2000/svg">
<path d="M0 94.3734C0 61.3396 0 44.8227 6.4288 32.2055C12.0837 21.107 21.107 12.0837 32.2055 6.4288C44.8227 0 61.3396 0 94.3734 0H161.627C194.66 0 211.177 0 223.795 6.4288C234.893 12.0837 243.916 21.107 249.571 32.2055C256 44.8227 256 61.3396 256 94.3734V161.627C256 194.66 256 211.177 249.571 223.795C243.916 234.893 234.893 243.916 223.795 249.571C211.177 256 194.66 256 161.627 256H94.3734C61.3396 256 44.8227 256 32.2055 249.571C21.107 243.916 12.0837 234.893 6.4288 223.795C0 211.177 0 194.66 0 161.627V94.3734Z" fill="url(#paint0_linear_503_2013)"/>
<path fill-rule="evenodd" clip-rule="evenodd" d="M102.817 98.7046H92.9009V118.536H102.817V138.367H122.648V98.7046H112.732H102.817Z" fill="#B973FC"/>
<path d="M82.9854 148.282H172.225V168.113H82.9854V148.282Z" fill="#0EDE99"/>
<path fill-rule="evenodd" clip-rule="evenodd" d="M82.9852 39.2114H102.816V59.0427H152.393V39.2114H172.224V59.0427H192.056H211.887V78.8737V148.282H192.056V78.8737H63.1542V98.7047H43.3232V78.8737V59.0427H63.1542H82.9852V39.2114ZM192.056 187.944V168.113H211.887V187.944C211.887 198.896 203.008 207.775 192.056 207.775H63.1542H43.3232V187.944V118.536H63.1542V187.944H192.056Z" fill="white"/>
<path fill-rule="evenodd" clip-rule="evenodd" d="M162.309 98.7046H142.478V98.7046H132.562V118.536H142.478V138.367H162.309V98.7046Z" fill="#F8607E"/>
<defs>
<linearGradient id="paint0_linear_503_2013" x1="128" y1="0" x2="128" y2="256" gradientUnits="userSpaceOnUse">
<stop stop-color="#061C38"/>
<stop offset="1" stop-color="#3A4A64"/>
</linearGradient>
</defs>
</svg>
